<svg width="2000" height="600" viewBox="0 0 2000 600" fill="none" xmlns="http://www.w3.org/2000/svg">
<path d="M533.6 406C530.133 406 527.333 405.6 525.2 404.8C523.067 404.267 522 403.2 522 401.6C522 398.4 526.4 396 535.2 394.4C545.333 392.533 552.267 389.467 556 385.2C560 380.933 562 373.867 562 364V195.2C562 183.2 560.4 174 557.2 167.6C554.267 161.2 547.733 157.067 537.6 155.2C533.067 154.4 529.733 153.333 527.6 152C525.467 150.667 524.4 149.067 524.4 147.2C524.4 145.6 525.467 144.533 527.6 144C529.733 143.2 532.533 142.8 536 142.8C545.867 142.8 554.133 142.933 560.8 143.2C567.733 143.467 574.533 143.733 581.2 144C587.867 144 595.733 144 604.8 144C612.533 144 620.8 144 629.6 144C638.4 144 646.933 144 655.2 144C663.733 144 671.2 143.333 677.6 142C684.267 140.667 690 140 694.8 140C696.133 140 697.6 140.267 699.2 140.8C700.8 141.333 701.733 142.267 702 143.6C702.533 146.533 702.933 150.933 703.2 156.8C703.467 162.4 703.6 167.867 703.6 173.2C703.867 178.533 704 182.133 704 184C704 189.6 702.8 192.4 700.4 192.4C699.067 192.4 697.867 192 696.8 191.2C695.733 190.133 694.933 188.933 694.4 187.6C693.333 183.067 692 179.2 690.4 176C688.8 172.533 687.067 169.867 685.2 168C681.467 163.733 677.333 160.933 672.8 159.6C668.267 158 663.467 157.2 658.4 157.2H607.6C601.467 157.2 597.733 159.2 596.4 163.2C595.067 167.2 594.267 171.867 594 177.2C593.733 182.267 593.6 188.533 593.6 196C593.6 203.2 593.6 210.267 593.6 217.2C593.6 223.867 593.6 230.667 593.6 237.6C593.6 244.533 593.733 250.4 594 255.2C594 257.333 594.133 259.333 594.4 261.2C594.933 263.067 596.133 264 598 264C606.533 264 615.2 263.867 624 263.6C632.8 263.067 639.6 262.8 644.4 262.8C650.267 262.8 655.333 261.2 659.6 258C663.867 254.8 666.933 250.933 668.8 246.4C669.333 245.333 670.4 244 672 242.4C673.6 240.533 674.933 239.6 676 239.6C677.067 239.6 678.267 240.267 679.6 241.6C680.933 242.667 681.467 244.133 681.2 246C680.933 250.533 680.667 254.533 680.4 258C680.133 261.467 680 264.8 680 268C680 272 680.133 276.133 680.4 280.4C680.667 284.4 680.933 289.333 681.2 295.2C681.2 297.067 680.933 298.667 680.4 300C680.133 301.333 679.2 302 677.6 302C674.933 302 672.8 300.8 671.2 298.4C669.867 296 668.933 294.133 668.4 292.8C666.533 286.667 663.733 282.533 660 280.4C656.267 278 652.8 276.8 649.6 276.8C646.133 276.8 642.667 276.8 639.2 276.8C636 276.533 632.8 276.4 629.6 276.4C625.067 276.4 620.667 276.4 616.4 276.4C612.133 276.4 607.867 276.667 603.6 277.2C600.933 277.467 598.667 278.4 596.8 280C594.933 281.333 594 283.733 594 287.2C594 299.467 594 312 594 324.8C594.267 337.333 594.667 350.267 595.2 363.6C595.733 372.133 597.733 378.933 601.2 384C604.933 389.067 611.733 392.533 621.6 394.4C626.133 395.2 629.467 396.133 631.6 397.2C633.733 398.267 634.8 399.733 634.8 401.6C634.8 403.2 633.733 404.267 631.6 404.8C629.467 405.6 626.667 406 623.2 406C616 406 610.4 405.733 606.4 405.2C602.667 404.667 599.2 404.267 596 404C593.067 403.467 589.067 403.2 584 403.2C577.6 403.2 571.867 403.467 566.8 404C562 404.267 557.067 404.667 552 405.2C546.933 405.733 540.8 406 533.6 406ZM796.178 409.6C781.245 409.6 767.778 406.133 755.778 399.2C743.778 392.267 734.178 382.8 726.978 370.8C720.045 358.533 716.578 344.667 716.578 329.2C716.578 318 718.711 307.067 722.978 296.4C727.511 285.733 733.778 276 741.778 267.2C749.778 258.4 759.111 251.467 769.778 246.4C780.445 241.067 791.911 238.4 804.178 238.4C819.645 238.4 833.511 242.133 845.778 249.6C858.311 257.067 868.178 266.933 875.378 279.2C882.845 291.2 886.578 304.4 886.578 318.8C886.578 334.267 883.111 348.933 876.178 362.8C869.511 376.667 859.511 388 846.178 396.8C832.845 405.333 816.178 409.6 796.178 409.6ZM804.578 397.6C813.645 397.6 821.778 395.867 828.978 392.4C836.178 388.933 841.778 383.333 845.778 375.6C848.978 369.467 851.111 362 852.178 353.2C853.245 344.4 853.778 336.133 853.778 328.4C853.778 315.6 851.378 303.333 846.578 291.6C842.045 279.6 835.511 269.867 826.978 262.4C818.711 254.667 808.845 250.8 797.378 250.8C790.178 250.8 783.645 252 777.778 254.4C772.178 256.533 766.978 260.667 762.178 266.8C756.845 273.467 753.378 281.6 751.778 291.2C750.178 300.8 749.378 310.4 749.378 320C749.378 333.067 751.778 345.6 756.578 357.6C761.378 369.333 767.911 378.933 776.178 386.4C784.445 393.867 793.911 397.6 804.578 397.6ZM910.366 405.2C909.032 405.2 907.299 404.933 905.166 404.4C903.299 404.133 902.366 403.2 902.366 401.6C902.366 399.467 903.299 398 905.166 397.2C907.299 396.133 909.432 395.2 911.566 394.4C915.566 393.067 919.432 391.6 923.166 390C926.899 388.133 928.766 384.533 928.766 379.2V177.6C928.766 169.867 927.299 163.467 924.366 158.4C921.699 153.067 917.032 149.733 910.366 148.4C908.232 147.867 907.166 146.133 907.166 143.2C907.166 140.533 908.099 138.933 909.966 138.4C916.899 136.8 922.899 135.2 927.966 133.6C933.032 131.733 937.699 129.867 941.966 128C946.499 126.133 950.899 124.4 955.166 122.8C956.232 122.267 957.032 122 957.566 122C958.099 122 958.499 122.4 958.766 123.2C959.299 123.733 959.566 124.267 959.566 124.8C959.566 127.2 959.032 132.4 957.966 140.4C957.166 148.133 956.766 161.067 956.766 179.2V379.2C956.766 384.533 958.632 388.133 962.366 390C966.099 391.6 969.966 393.067 973.966 394.4C976.099 395.2 978.099 396.133 979.966 397.2C982.099 398 983.166 399.467 983.166 401.6C983.166 403.2 982.099 404.133 979.966 404.4C978.099 404.933 976.499 405.2 975.166 405.2C970.099 405.2 965.966 404.933 962.766 404.4C959.832 404.133 956.899 403.867 953.966 403.6C951.299 403.333 947.566 403.2 942.766 403.2C938.232 403.2 934.499 403.333 931.566 403.6C928.632 403.867 925.699 404.133 922.766 404.4C919.832 404.933 915.699 405.2 910.366 405.2ZM1007.66 405.2C1001.53 405.2 998.459 403.733 998.459 400.8C998.459 398.667 999.393 397.333 1001.26 396.8C1003.39 396 1005.53 395.2 1007.66 394.4C1011.66 393.067 1015.53 391.333 1019.26 389.2C1022.99 387.067 1024.86 383.333 1024.86 378V177.6C1024.86 168.267 1023.53 161.467 1020.86 157.2C1018.19 152.933 1013.53 150 1006.86 148.4C1004.46 147.867 1003.26 146.133 1003.26 143.2C1003.26 140.533 1004.33 138.933 1006.46 138.4C1013.39 136.8 1019.39 135.2 1024.46 133.6C1029.53 131.733 1034.06 130 1038.06 128.4C1042.33 126.533 1046.46 124.8 1050.46 123.2C1052.06 122.4 1053.26 122 1054.06 122C1054.86 122 1055.39 122.267 1055.66 122.8C1056.19 123.333 1056.46 124.267 1056.46 125.6C1056.46 128.267 1055.79 133.6 1054.46 141.6C1053.39 149.6 1052.86 162.133 1052.86 179.2V310.4C1052.86 312.8 1053.53 314 1054.86 314C1056.46 314 1058.46 313.333 1060.86 312C1063.53 310.667 1066.33 308.667 1069.26 306C1080.19 296.667 1089.26 288.267 1096.46 280.8C1103.93 273.067 1108.99 267.733 1111.66 264.8C1112.99 263.2 1113.93 262 1114.46 261.2C1114.99 260.133 1115.26 259.333 1115.26 258.8C1115.26 257.467 1114.06 256.267 1111.66 255.2C1109.53 254.133 1107.26 253.333 1104.86 252.8C1101.66 252 1100.06 250.667 1100.06 248.8C1100.06 247.467 1100.86 246.4 1102.46 245.6C1104.06 244.533 1106.19 244 1108.86 244H1128.46C1132.73 244 1137.13 243.6 1141.66 242.8C1146.46 242 1150.86 241.2 1154.86 240.4C1159.13 239.6 1162.46 239.2 1164.86 239.2C1168.59 239.2 1170.46 240.533 1170.46 243.2C1170.46 244.8 1169.53 246.267 1167.66 247.6C1165.79 248.667 1163.39 249.6 1160.46 250.4C1155.39 251.733 1150.59 253.6 1146.06 256C1141.79 258.4 1137.79 260.667 1134.06 262.8C1132.46 263.867 1128.73 266.8 1122.86 271.6C1117.26 276.133 1110.73 281.467 1103.26 287.6C1096.06 293.733 1089.26 299.6 1082.86 305.2C1081.26 306.8 1080.46 308.133 1080.46 309.2C1080.46 309.467 1080.59 309.867 1080.86 310.4C1081.13 310.933 1081.39 311.467 1081.66 312C1088.59 320.533 1096.06 329.2 1104.06 338C1112.06 346.8 1119.39 354.533 1126.06 361.2C1132.99 367.867 1137.79 372.533 1140.46 375.2C1144.99 379.467 1150.06 383.333 1155.66 386.8C1161.53 390 1166.46 392.267 1170.46 393.6C1173.39 394.667 1176.06 395.6 1178.46 396.4C1181.13 397.2 1182.46 398.667 1182.46 400.8C1182.46 403.733 1179.79 405.2 1174.46 405.2C1164.06 405.2 1152.33 404.933 1139.26 404.4C1126.46 404.133 1113.26 404 1099.66 404C1094.86 404 1092.46 402.8 1092.46 400.4C1092.46 398.8 1093.13 397.467 1094.46 396.4C1095.79 395.333 1097.39 394.533 1099.26 394C1102.19 392.933 1104.73 391.733 1106.86 390.4C1108.99 389.067 1110.06 387.2 1110.06 384.8C1110.06 384 1109.79 383.2 1109.26 382.4C1108.73 381.333 1108.06 380.267 1107.26 379.2L1058.86 324.4C1057.26 322.533 1055.93 321.6 1054.86 321.6C1053.53 321.6 1052.86 322.533 1052.86 324.4C1052.59 328.133 1052.46 332.267 1052.46 336.8C1052.46 341.067 1052.46 345.467 1052.46 350C1052.46 354.533 1052.46 359.2 1052.46 364C1052.46 368.8 1052.59 373.467 1052.86 378C1052.86 383.333 1054.19 387.067 1056.86 389.2C1059.53 391.333 1062.86 393.067 1066.86 394.4C1068.99 395.2 1070.99 396 1072.86 396.8C1074.99 397.333 1076.06 398.667 1076.06 400.8C1076.06 402.667 1074.73 403.867 1072.06 404.4C1069.66 404.933 1067.93 405.2 1066.86 405.2C1061.79 405.2 1058.06 404.933 1055.66 404.4C1053.26 404.133 1050.99 403.867 1048.86 403.6C1046.99 403.333 1043.66 403.2 1038.86 403.2C1034.33 403.2 1030.73 403.333 1028.06 403.6C1025.39 403.867 1022.59 404.133 1019.66 404.4C1016.99 404.933 1012.99 405.2 1007.66 405.2ZM1253.96 409.6C1240.89 409.6 1230.63 405.6 1223.16 397.6C1215.96 389.6 1212.36 377.733 1212.36 362V269.2C1212.36 267.067 1211.56 265.6 1209.96 264.8C1208.36 263.733 1204.89 263.2 1199.56 263.2H1197.16C1195.83 263.2 1194.63 262.4 1193.56 260.8C1192.76 258.933 1192.36 257.067 1192.36 255.2C1192.36 254.667 1192.76 253.867 1193.56 252.8C1194.36 251.733 1194.89 251.067 1195.16 250.8C1200.49 247.067 1205.29 243.333 1209.56 239.6C1214.09 235.867 1218.09 232.267 1221.56 228.8C1225.29 225.067 1228.36 221.733 1230.76 218.8C1232.09 217.467 1233.16 216.4 1233.96 215.6C1235.03 214.533 1236.23 214 1237.56 214C1238.89 214 1240.09 214.267 1241.16 214.8C1242.49 215.333 1243.03 216.533 1242.76 218.4L1240.76 236.4C1240.49 239.333 1241.16 241.333 1242.76 242.4C1244.36 243.467 1246.89 244 1250.36 244H1295.96C1297.03 244 1297.96 244.933 1298.76 246.8C1299.56 248.4 1299.96 250.4 1299.96 252.8C1299.96 255.2 1299.56 257.6 1298.76 260C1297.96 262.133 1297.03 263.2 1295.96 263.2H1256.36C1249.69 263.2 1245.29 263.733 1243.16 264.8C1241.29 265.867 1240.36 269.067 1240.36 274.4V353.2C1240.36 363.867 1242.63 372.267 1247.16 378.4C1251.69 384.533 1258.23 387.6 1266.76 387.6C1274.49 387.6 1280.49 387.067 1284.76 386C1289.03 384.667 1292.89 382.8 1296.36 380.4C1296.89 379.867 1297.43 379.6 1297.96 379.6C1299.03 379.6 1299.69 380.267 1299.96 381.6C1300.49 382.667 1300.76 383.867 1300.76 385.2C1300.76 386.533 1298.49 389.2 1293.96 393.2C1289.69 397.2 1283.96 400.933 1276.76 404.4C1269.83 407.867 1262.23 409.6 1253.96 409.6ZM1321.74 405.2C1319.34 405.2 1317.34 404.8 1315.74 404C1314.41 403.467 1313.74 402.4 1313.74 400.8C1313.74 398.667 1314.67 397.2 1316.54 396.4C1318.67 395.6 1320.81 394.933 1322.94 394.4C1328.54 393.067 1332.81 391.467 1335.74 389.6C1338.67 387.467 1340.14 384 1340.14 379.2V292.4C1340.14 285.2 1338.81 278.8 1336.14 273.2C1333.74 267.6 1329.07 264.267 1322.14 263.2C1320.81 262.933 1319.74 262.4 1318.94 261.6C1318.41 260.8 1318.14 259.6 1318.14 258C1318.14 255.067 1319.34 253.467 1321.74 253.2C1332.41 250.8 1341.21 247.6 1348.14 243.6C1355.07 239.333 1360.27 235.867 1363.74 233.2C1366.14 231.333 1368.01 230.4 1369.34 230.4C1370.94 230.4 1371.74 231.067 1371.74 232.4C1371.74 234.533 1371.34 238.8 1370.54 245.2C1370.01 251.333 1369.47 258.267 1368.94 266C1368.41 273.467 1368.14 280.267 1368.14 286.4V379.2C1368.14 383.733 1369.61 387.067 1372.54 389.2C1375.74 391.333 1380.01 393.067 1385.34 394.4C1387.47 394.933 1389.47 395.6 1391.34 396.4C1393.47 397.2 1394.54 398.667 1394.54 400.8C1394.54 403.733 1391.87 405.2 1386.54 405.2C1381.47 405.2 1377.34 404.933 1374.14 404.4C1371.21 404.133 1368.27 403.867 1365.34 403.6C1362.67 403.333 1358.94 403.2 1354.14 403.2C1349.61 403.2 1345.87 403.333 1342.94 403.6C1340.01 403.867 1337.07 404.133 1334.14 404.4C1331.21 404.933 1327.07 405.2 1321.74 405.2ZM1353.74 197.6C1348.14 197.6 1343.34 195.733 1339.34 192C1335.61 188 1333.74 183.2 1333.74 177.6C1333.74 171.733 1335.61 166.933 1339.34 163.2C1343.34 159.2 1348.14 157.2 1353.74 157.2C1359.61 157.2 1364.41 159.2 1368.14 163.2C1372.14 166.933 1374.14 171.733 1374.14 177.6C1374.14 183.2 1372.14 188 1368.14 192C1364.41 195.733 1359.61 197.6 1353.74 197.6ZM1417.79 406C1416.72 406 1415.52 405.2 1414.19 403.6C1412.85 401.733 1412.19 400.267 1412.19 399.2C1412.19 398.4 1412.99 396.667 1414.59 394C1416.45 391.333 1418.45 388.267 1420.59 384.8C1422.99 381.333 1425.12 378.4 1426.99 376C1433.65 366.4 1440.05 357.2 1446.19 348.4C1452.32 339.333 1458.32 330.4 1464.19 321.6C1470.32 312.533 1476.59 303.067 1482.99 293.2C1489.39 283.067 1496.19 272.267 1503.39 260.8C1503.92 260 1504.19 259.2 1504.19 258.4C1504.19 257.333 1502.72 256.8 1499.79 256.8L1460.19 255.6C1456.45 255.333 1452.99 256.133 1449.79 258C1446.59 259.867 1444.19 261.6 1442.59 263.2C1440.99 264.8 1439.39 266.533 1437.79 268.4C1436.45 270.267 1434.99 272.267 1433.39 274.4C1432.05 276.533 1430.59 278.667 1428.99 280.8C1427.65 282.667 1426.32 284.533 1424.99 286.4C1423.39 288 1421.25 288.267 1418.59 287.2C1416.19 286.133 1415.39 284.533 1416.19 282.4C1416.99 280 1417.92 276.533 1418.99 272C1420.32 267.2 1421.39 262.267 1422.19 257.2C1423.25 252.133 1423.79 248 1423.79 244.8C1423.79 242.667 1424.59 240.933 1426.19 239.6C1427.79 238.267 1428.99 237.6 1429.79 237.6C1430.85 237.6 1432.85 238.8 1435.79 241.2C1437.12 242.267 1439.39 242.933 1442.59 243.2C1446.05 243.467 1449.52 243.6 1452.99 243.6C1455.92 243.6 1458.72 243.6 1461.39 243.6C1464.05 243.333 1466.32 243.2 1468.19 243.2C1482.05 243.2 1494.85 243.067 1506.59 242.8C1518.32 242.533 1530.32 242.267 1542.59 242C1543.39 242 1544.05 242.267 1544.59 242.8C1545.12 243.333 1545.52 244 1545.79 244.8C1546.05 245.6 1545.92 246.267 1545.39 246.8C1542.72 250.267 1540.19 253.467 1537.79 256.4C1535.39 259.333 1532.85 262.8 1530.19 266.8L1452.19 384.8C1451.12 386.667 1450.99 388.133 1451.79 389.2C1452.59 390.267 1453.92 390.8 1455.79 390.8H1502.99C1505.92 390.8 1508.85 390 1511.79 388.4C1514.99 386.8 1518.05 384.533 1520.99 381.6C1524.19 378.4 1527.65 374.267 1531.39 369.2C1535.12 363.867 1538.99 358.267 1542.99 352.4C1544.32 350.533 1546.05 350 1548.19 350.8C1550.59 351.6 1551.79 353.067 1551.79 355.2C1551.79 356 1551.25 358.533 1550.19 362.8C1549.12 366.8 1547.79 371.467 1546.19 376.8C1544.85 381.867 1543.52 386.667 1542.19 391.2C1541.12 395.733 1540.32 398.8 1539.79 400.4C1538.99 404.133 1536.85 406 1533.39 406C1527.52 406 1517.52 405.6 1503.39 404.8C1489.52 404.267 1471.65 404 1449.79 404C1444.19 404 1438.32 404.267 1432.19 404.8C1426.05 405.6 1421.25 406 1417.79 406ZM1638.17 410C1623.5 410 1610.7 406.4 1599.77 399.2C1588.84 392 1580.3 381.867 1574.17 368.8C1568.04 355.467 1564.97 340.133 1564.97 322.8C1564.97 307.333 1568.44 293.333 1575.37 280.8C1582.57 268 1592.04 257.733 1603.77 250C1615.5 242.267 1628.3 238.4 1642.17 238.4C1652.84 238.4 1662.3 240.533 1670.57 244.8C1678.84 249.067 1685.24 255.067 1689.77 262.8C1694.57 270.267 1696.97 278.933 1696.97 288.8C1696.97 297.067 1692.97 301.2 1684.97 301.2H1600.57C1596.84 301.2 1594.17 302.267 1592.57 304.4C1591.24 306.267 1590.57 310.133 1590.57 316C1590.57 328.8 1593.37 340.533 1598.97 351.2C1604.57 361.6 1612.04 370 1621.37 376.4C1630.7 382.533 1640.97 385.6 1652.17 385.6C1660.17 385.6 1667.37 384.133 1673.77 381.2C1680.44 378 1686.3 373.467 1691.37 367.6C1692.44 366.267 1693.24 365.467 1693.77 365.2C1694.3 364.667 1694.97 364.4 1695.77 364.4C1697.9 364.4 1698.97 365.733 1698.97 368.4C1698.97 373.467 1696.57 379.067 1691.77 385.2C1687.77 390.267 1682.97 394.667 1677.37 398.4C1671.77 402.133 1665.64 404.933 1658.97 406.8C1652.3 408.933 1645.37 410 1638.17 410ZM1601.37 288.8H1637.77C1644.17 288.8 1649.64 288.667 1654.17 288.4C1658.7 288.133 1663.1 287.6 1667.37 286.8C1668.7 286.533 1669.5 285.733 1669.77 284.4C1670.3 282.8 1670.57 280.667 1670.57 278C1670.57 270.267 1667.1 263.733 1660.17 258.4C1653.5 252.8 1645.5 250 1636.17 250C1630.04 250 1623.9 251.867 1617.77 255.6C1611.64 259.067 1606.57 263.467 1602.57 268.8C1598.57 274.133 1596.57 279.467 1596.57 284.8C1596.57 287.467 1598.17 288.8 1601.37 288.8ZM1726.43 405.2C1724.03 405.2 1722.03 404.8 1720.43 404C1719.09 403.467 1718.43 402.4 1718.43 400.8C1718.43 398.667 1719.23 397.333 1720.83 396.8C1722.43 396 1724.69 395.2 1727.63 394.4C1731.63 393.333 1735.49 391.867 1739.23 390C1742.96 388.133 1744.83 384.533 1744.83 379.2V293.2C1744.83 286 1744.03 279.867 1742.43 274.8C1741.09 269.733 1736.96 266.267 1730.03 264.4C1728.96 263.867 1728.03 263.333 1727.23 262.8C1726.43 262 1726.03 260.8 1726.03 259.2C1726.03 256.267 1727.23 254.667 1729.63 254.4C1738.96 252 1746.56 249.067 1752.43 245.6C1758.29 242.133 1764.03 238.267 1769.63 234C1770.43 233.467 1771.09 233.067 1771.63 232.8C1772.43 232.267 1773.23 232 1774.03 232C1774.56 232 1774.96 232.267 1775.23 232.8C1775.76 233.333 1776.03 234 1776.03 234.8C1776.03 236.667 1775.63 240.533 1774.83 246.4C1774.29 252 1774.03 256.667 1774.03 260.4C1774.03 261.467 1774.03 262.533 1774.03 263.6C1774.29 264.4 1774.56 264.933 1774.83 265.2C1784.16 256.4 1794.03 249.733 1804.43 245.2C1815.09 240.667 1826.69 238.4 1839.23 238.4C1852.29 238.4 1863.09 243.733 1871.63 254.4C1880.16 265.067 1884.43 278.267 1884.43 294V379.2C1884.43 384.533 1886.29 388.133 1890.03 390C1893.76 391.6 1897.63 393.067 1901.63 394.4C1903.76 395.2 1905.76 396.133 1907.63 397.2C1909.76 398 1910.83 399.467 1910.83 401.6C1910.83 403.2 1909.89 404.133 1908.03 404.4C1906.16 404.933 1904.43 405.2 1902.83 405.2C1897.49 405.2 1893.36 404.933 1890.43 404.4C1887.49 404.133 1884.69 403.867 1882.03 403.6C1879.36 403.333 1875.63 403.2 1870.83 403.2C1866.29 403.2 1862.56 403.333 1859.63 403.6C1856.69 403.867 1853.63 404.133 1850.43 404.4C1847.49 404.933 1843.36 405.2 1838.03 405.2C1836.69 405.2 1834.96 404.933 1832.83 404.4C1830.96 404.133 1830.03 403.2 1830.03 401.6C1830.03 399.467 1830.96 398 1832.83 397.2C1834.96 396.133 1837.09 395.2 1839.23 394.4C1843.23 393.067 1847.09 391.6 1850.83 390C1854.56 388.133 1856.43 384.533 1856.43 379.2V295.2C1856.43 283.467 1853.09 274.4 1846.43 268C1840.03 261.333 1831.36 257.867 1820.43 257.6C1810.83 257.6 1802.43 259.2 1795.23 262.4C1788.03 265.333 1781.63 269.067 1776.03 273.6C1774.96 274.667 1774.16 276.133 1773.63 278C1773.09 279.6 1772.83 281.2 1772.83 282.8V379.2C1772.83 384.533 1774.69 388.133 1778.43 390C1782.16 391.867 1786.03 393.333 1790.03 394.4C1796.16 396 1799.23 398.133 1799.23 400.8C1799.23 402.4 1798.56 403.467 1797.23 404C1795.89 404.8 1793.89 405.2 1791.23 405.2C1785.89 405.2 1781.63 404.933 1778.43 404.4C1775.49 404.133 1772.69 403.867 1770.03 403.6C1767.36 403.333 1763.63 403.2 1758.83 403.2C1754.29 403.2 1750.56 403.333 1747.63 403.6C1744.96 403.867 1742.03 404.133 1738.83 404.4C1735.89 404.933 1731.76 405.2 1726.43 405.2Z" fill="url(#paint0_linear_18_30)"/>
<path d="M365.65 176.19C371.034 176.19 376.366 175.129 381.34 173.069C386.314 171.009 390.834 167.989 394.641 164.181C398.449 160.374 401.469 155.854 403.529 150.88C405.589 145.906 406.65 140.574 406.65 135.19C406.65 140.574 407.71 145.906 409.771 150.88C411.831 155.854 414.851 160.374 418.659 164.181C426.348 171.87 436.776 176.19 447.65 176.19C436.776 176.19 426.348 180.51 418.659 188.199C410.97 195.888 406.65 206.316 406.65 217.19C406.65 206.316 402.33 195.888 394.641 188.199C386.952 180.51 376.524 176.19 365.65 176.19Z" fill="url(#paint1_linear_18_30)"/>
<path d="M230.28 403.94C256.401 403.966 281.957 396.339 303.79 382H156.79C178.618 396.333 204.166 403.96 230.28 403.94Z" fill="url(#paint2_linear_18_30)"/>
<path d="M134.25 363.53H326.3C333 356.671 338.95 349.119 344.05 341H116.51C121.607 349.119 127.554 356.671 134.25 363.53Z" fill="url(#paint3_linear_18_30)"/>
<path d="M327.69 177.08H132.86C126.327 183.948 120.532 191.483 115.57 199.56H345C340.036 191.479 334.234 183.944 327.69 177.08Z" fill="url(#paint4_linear_18_30)"/>
<path d="M106.76 322.54H353.76C356.869 315.276 359.325 307.75 361.1 300.05H99.42C101.199 307.748 103.656 315.274 106.76 322.54Z" fill="url(#paint5_linear_18_30)"/>
<path d="M364.2 259.06H96.36C96.09 262.53 95.91 266.06 95.91 269.58C95.91 273.58 96.12 277.58 96.47 281.58H364.09C364.44 277.63 364.65 273.64 364.65 269.58C364.65 266 364.47 262.53 364.2 259.06Z" fill="url(#paint6_linear_18_30)"/>
<path d="M354.4 218.07H106.15C103.137 225.344 100.775 232.87 99.09 240.56H361.47C359.782 232.869 357.416 225.343 354.4 218.07Z" fill="url(#paint7_linear_18_30)"/>
<path d="M245.5 136.09C213.471 132.439 181.195 140.42 154.56 158.58H306C287.976 146.248 267.203 138.526 245.5 136.09Z" fill="url(#paint8_linear_18_30)"/>
<path d="M354.41 404.52C376.683 404.533 398.219 396.541 415.09 382H293.72C310.594 396.543 332.134 404.536 354.41 404.52Z" fill="url(#paint9_linear_18_30)"/>
<path d="M354.41 404.52C376.683 404.533 398.219 396.541 415.09 382H293.72C310.594 396.543 332.134 404.536 354.41 404.52Z" fill="url(#paint10_linear_18_30)"/>
<path d="M261.18 311.29C261.19 315.051 261.424 318.807 261.88 322.54H446.93C447.863 315.072 447.863 307.518 446.93 300.05H261.93C261.457 303.779 261.207 307.532 261.18 311.29Z" fill="url(#paint11_linear_18_30)"/>
<path d="M261.18 311.29C261.19 315.051 261.424 318.807 261.88 322.54H446.93C447.863 315.072 447.863 307.518 446.93 300.05H261.93C261.457 303.779 261.207 307.532 261.18 311.29Z" fill="url(#paint12_linear_18_30)"/>
<path d="M293.72 240.56H415.09C398.201 226.049 376.672 218.07 354.405 218.07C332.138 218.07 310.609 226.049 293.72 240.56Z" fill="url(#paint13_linear_18_30)"/>
<path d="M293.72 240.56H415.09C398.201 226.049 376.672 218.07 354.405 218.07C332.138 218.07 310.609 226.049 293.72 240.56Z" fill="url(#paint14_linear_18_30)"/>
<path d="M266.06 281.55H442.76C440.083 273.585 436.339 266.019 431.63 259.06H277.18C272.474 266.02 268.734 273.586 266.06 281.55Z" fill="url(#paint15_linear_18_30)"/>
<path d="M266.06 281.55H442.76C440.083 273.585 436.339 266.019 431.63 259.06H277.18C272.474 266.02 268.734 273.586 266.06 281.55Z" fill="url(#paint16_linear_18_30)"/>
<path d="M277.18 363.53H431.63C436.342 356.558 440.086 348.979 442.76 341H266.06C268.73 348.978 272.471 356.558 277.18 363.53Z" fill="url(#paint17_linear_18_30)"/>
<path d="M277.18 363.53H431.63C436.342 356.558 440.086 348.979 442.76 341H266.06C268.73 348.978 272.471 356.558 277.18 363.53Z" fill="url(#paint18_linear_18_30)"/>
<defs>
<linearGradient id="paint0_linear_18_30" x1="1286.42" y1="115" x2="1293.46" y2="563.015" gradientUnits="userSpaceOnUse">
<stop stop-color="#554A7D"/>
<stop offset="1" stop-color="#231F20" stop-opacity="0.8"/>
</linearGradient>
<linearGradient id="paint1_linear_18_30" x1="386.15" y1="155.7" x2="427.14" y2="196.69" gradientUnits="userSpaceOnUse">
<stop stop-color="#FF5E87"/>
<stop offset="0.09" stop-color="#E34D8C"/>
<stop offset="0.28" stop-color="#9A2297"/>
<stop offset="0.35" stop-color="#7F119C"/>
<stop offset="0.41" stop-color="#7B1CA0"/>
<stop offset="0.52" stop-color="#713AA9"/>
<stop offset="0.66" stop-color="#616BB9"/>
<stop offset="0.82" stop-color="#4BAFCF"/>
<stop offset="1" stop-color="#30FFE9"/>
</linearGradient>
<linearGradient id="paint2_linear_18_30" x1="80.35" y1="232.1" x2="255.53" y2="407.28" gradientUnits="userSpaceOnUse">
<stop stop-color="#FF5E87"/>
<stop offset="0.09" stop-color="#E3528C"/>
<stop offset="0.29" stop-color="#9A3498"/>
<stop offset="0.35" stop-color="#842A9C"/>
<stop offset="0.42" stop-color="#8035A0"/>
<stop offset="0.53" stop-color="#7453AB"/>
<stop offset="0.68" stop-color="#6084BD"/>
<stop offset="0.86" stop-color="#46C7D5"/>
<stop offset="1" stop-color="#30FFE9"/>
</linearGradient>
<linearGradient id="paint3_linear_18_30" x1="99.65" y1="212.79" x2="274.84" y2="387.97" gradientUnits="userSpaceOnUse">
<stop stop-color="#FF5E87"/>
<stop offset="0.09" stop-color="#E3528C"/>
<stop offset="0.29" stop-color="#9A3498"/>
<stop offset="0.35" stop-color="#842A9C"/>
<stop offset="0.42" stop-color="#8035A0"/>
<stop offset="0.53" stop-color="#7453AB"/>
<stop offset="0.68" stop-color="#6084BD"/>
<stop offset="0.86" stop-color="#46C7D5"/>
<stop offset="1" stop-color="#30FFE9"/>
</linearGradient>
<linearGradient id="paint4_linear_18_30" x1="172.88" y1="139.56" x2="348.06" y2="314.75" gradientUnits="userSpaceOnUse">
<stop stop-color="#FF5E87"/>
<stop offset="0.09" stop-color="#E3528C"/>
<stop offset="0.29" stop-color="#9A3498"/>
<stop offset="0.35" stop-color="#842A9C"/>
<stop offset="0.42" stop-color="#8035A0"/>
<stop offset="0.53" stop-color="#7453AB"/>
<stop offset="0.68" stop-color="#6084BD"/>
<stop offset="0.86" stop-color="#46C7D5"/>
<stop offset="1" stop-color="#30FFE9"/>
</linearGradient>
<linearGradient id="paint5_linear_18_30" x1="117.55" y1="194.89" x2="292.73" y2="370.07" gradientUnits="userSpaceOnUse">
<stop stop-color="#FF5E87"/>
<stop offset="0.09" stop-color="#E3528C"/>
<stop offset="0.29" stop-color="#9A3498"/>
<stop offset="0.35" stop-color="#842A9C"/>
<stop offset="0.42" stop-color="#8035A0"/>
<stop offset="0.53" stop-color="#7453AB"/>
<stop offset="0.68" stop-color="#6084BD"/>
<stop offset="0.86" stop-color="#46C7D5"/>
<stop offset="1" stop-color="#30FFE9"/>
</linearGradient>
<linearGradient id="paint6_linear_18_30" x1="136.24" y1="176.2" x2="311.42" y2="351.39" gradientUnits="userSpaceOnUse">
<stop stop-color="#FF5E87"/>
<stop offset="0.09" stop-color="#E3528C"/>
<stop offset="0.29" stop-color="#9A3498"/>
<stop offset="0.35" stop-color="#842A9C"/>
<stop offset="0.42" stop-color="#8035A0"/>
<stop offset="0.53" stop-color="#7453AB"/>
<stop offset="0.68" stop-color="#6084BD"/>
<stop offset="0.86" stop-color="#46C7D5"/>
<stop offset="1" stop-color="#30FFE9"/>
</linearGradient>
<linearGradient id="paint7_linear_18_30" x1="154.94" y1="157.5" x2="330.12" y2="332.69" gradientUnits="userSpaceOnUse">
<stop stop-color="#FF5E87"/>
<stop offset="0.09" stop-color="#E3528C"/>
<stop offset="0.29" stop-color="#9A3498"/>
<stop offset="0.35" stop-color="#842A9C"/>
<stop offset="0.42" stop-color="#8035A0"/>
<stop offset="0.53" stop-color="#7453AB"/>
<stop offset="0.68" stop-color="#6084BD"/>
<stop offset="0.86" stop-color="#46C7D5"/>
<stop offset="1" stop-color="#30FFE9"/>
</linearGradient>
<linearGradient id="paint8_linear_18_30" x1="192.07" y1="120.37" x2="367.25" y2="295.55" gradientUnits="userSpaceOnUse">
<stop stop-color="#FF5E87"/>
<stop offset="0.09" stop-color="#E3528C"/>
<stop offset="0.29" stop-color="#9A3498"/>
<stop offset="0.35" stop-color="#842A9C"/>
<stop offset="0.42" stop-color="#8035A0"/>
<stop offset="0.53" stop-color="#7453AB"/>
<stop offset="0.68" stop-color="#6084BD"/>
<stop offset="0.86" stop-color="#46C7D5"/>
<stop offset="1" stop-color="#30FFE9"/>
</linearGradient>
<linearGradient id="paint9_linear_18_30" x1="270.96" y1="298.59" x2="362.63" y2="390.25" gradientUnits="userSpaceOnUse">
<stop stop-color="#FF5E87"/>
<stop offset="0.09" stop-color="#E3528C"/>
<stop offset="0.29" stop-color="#9A3498"/>
<stop offset="0.35" stop-color="#842A9C"/>
<stop offset="0.42" stop-color="#8035A0"/>
<stop offset="0.53" stop-color="#7453AB"/>
<stop offset="0.68" stop-color="#6084BD"/>
<stop offset="0.86" stop-color="#46C7D5"/>
<stop offset="1" stop-color="#30FFE9"/>
</linearGradient>
<linearGradient id="paint10_linear_18_30" x1="270.96" y1="298.59" x2="362.63" y2="390.25" gradientUnits="userSpaceOnUse">
<stop stop-color="#FF5E87"/>
<stop offset="0.09" stop-color="#E3528C"/>
<stop offset="0.29" stop-color="#9A3498"/>
<stop offset="0.35" stop-color="#842A9C"/>
<stop offset="0.42" stop-color="#8035A0"/>
<stop offset="0.53" stop-color="#7453AB"/>
<stop offset="0.68" stop-color="#6084BD"/>
<stop offset="0.86" stop-color="#46C7D5"/>
<stop offset="1" stop-color="#30FFE9"/>
</linearGradient>
<linearGradient id="paint11_linear_18_30" x1="306.33" y1="263.22" x2="398" y2="354.88" gradientUnits="userSpaceOnUse">
<stop stop-color="#FF5E87"/>
<stop offset="0.09" stop-color="#E3528C"/>
<stop offset="0.29" stop-color="#9A3498"/>
<stop offset="0.35" stop-color="#842A9C"/>
<stop offset="0.42" stop-color="#8035A0"/>
<stop offset="0.53" stop-color="#7453AB"/>
<stop offset="0.68" stop-color="#6084BD"/>
<stop offset="0.86" stop-color="#46C7D5"/>
<stop offset="1" stop-color="#30FFE9"/>
</linearGradient>
<linearGradient id="paint12_linear_18_30" x1="306.33" y1="263.22" x2="398" y2="354.88" gradientUnits="userSpaceOnUse">
<stop stop-color="#FF5E87"/>
<stop offset="0.09" stop-color="#E3528C"/>
<stop offset="0.29" stop-color="#9A3498"/>
<stop offset="0.35" stop-color="#842A9C"/>
<stop offset="0.42" stop-color="#8035A0"/>
<stop offset="0.53" stop-color="#7453AB"/>
<stop offset="0.68" stop-color="#6084BD"/>
<stop offset="0.86" stop-color="#46C7D5"/>
<stop offset="1" stop-color="#30FFE9"/>
</linearGradient>
<linearGradient id="paint13_linear_18_30" x1="341.7" y1="227.85" x2="433.37" y2="319.51" gradientUnits="userSpaceOnUse">
<stop stop-color="#FF5E87"/>
<stop offset="0.09" stop-color="#E3528C"/>
<stop offset="0.29" stop-color="#9A3498"/>
<stop offset="0.35" stop-color="#842A9C"/>
<stop offset="0.42" stop-color="#8035A0"/>
<stop offset="0.53" stop-color="#7453AB"/>
<stop offset="0.68" stop-color="#6084BD"/>
<stop offset="0.86" stop-color="#46C7D5"/>
<stop offset="1" stop-color="#30FFE9"/>
</linearGradient>
<linearGradient id="paint14_linear_18_30" x1="341.7" y1="227.85" x2="433.37" y2="319.51" gradientUnits="userSpaceOnUse">
<stop stop-color="#FF5E87"/>
<stop offset="0.09" stop-color="#E3528C"/>
<stop offset="0.29" stop-color="#9A3498"/>
<stop offset="0.35" stop-color="#842A9C"/>
<stop offset="0.42" stop-color="#8035A0"/>
<stop offset="0.53" stop-color="#7453AB"/>
<stop offset="0.68" stop-color="#6084BD"/>
<stop offset="0.86" stop-color="#46C7D5"/>
<stop offset="1" stop-color="#30FFE9"/>
</linearGradient>
<linearGradient id="paint15_linear_18_30" x1="324.05" y1="245.5" x2="415.71" y2="337.17" gradientUnits="userSpaceOnUse">
<stop stop-color="#FF5E87"/>
<stop offset="0.09" stop-color="#E3528C"/>
<stop offset="0.29" stop-color="#9A3498"/>
<stop offset="0.35" stop-color="#842A9C"/>
<stop offset="0.42" stop-color="#8035A0"/>
<stop offset="0.53" stop-color="#7453AB"/>
<stop offset="0.68" stop-color="#6084BD"/>
<stop offset="0.86" stop-color="#46C7D5"/>
<stop offset="1" stop-color="#30FFE9"/>
</linearGradient>
<linearGradient id="paint16_linear_18_30" x1="324.05" y1="245.5" x2="415.71" y2="337.17" gradientUnits="userSpaceOnUse">
<stop stop-color="#FF5E87"/>
<stop offset="0.09" stop-color="#E3528C"/>
<stop offset="0.29" stop-color="#9A3498"/>
<stop offset="0.35" stop-color="#842A9C"/>
<stop offset="0.42" stop-color="#8035A0"/>
<stop offset="0.53" stop-color="#7453AB"/>
<stop offset="0.68" stop-color="#6084BD"/>
<stop offset="0.86" stop-color="#46C7D5"/>
<stop offset="1" stop-color="#30FFE9"/>
</linearGradient>
<linearGradient id="paint17_linear_18_30" x1="288.62" y1="280.93" x2="380.28" y2="372.59" gradientUnits="userSpaceOnUse">
<stop stop-color="#FF5E87"/>
<stop offset="0.09" stop-color="#E3528C"/>
<stop offset="0.29" stop-color="#9A3498"/>
<stop offset="0.35" stop-color="#842A9C"/>
<stop offset="0.42" stop-color="#8035A0"/>
<stop offset="0.53" stop-color="#7453AB"/>
<stop offset="0.68" stop-color="#6084BD"/>
<stop offset="0.86" stop-color="#46C7D5"/>
<stop offset="1" stop-color="#30FFE9"/>
</linearGradient>
<linearGradient id="paint18_linear_18_30" x1="288.62" y1="280.93" x2="380.28" y2="372.59" gradientUnits="userSpaceOnUse">
<stop stop-color="#FF5E87"/>
<stop offset="0.09" stop-color="#E3528C"/>
<stop offset="0.29" stop-color="#9A3498"/>
<stop offset="0.35" stop-color="#842A9C"/>
<stop offset="0.42" stop-color="#8035A0"/>
<stop offset="0.53" stop-color="#7453AB"/>
<stop offset="0.68" stop-color="#6084BD"/>
<stop offset="0.86" stop-color="#46C7D5"/>
<stop offset="1" stop-color="#30FFE9"/>
</linearGradient>
</defs>
</svg>
